<svg xmlns="http://www.w3.org/2000/svg" xmlns:xlink="http://www.w3.org/1999/xlink" width="1625" zoomAndPan="magnify" viewBox="0 0 1218.75 365.999986" height="488" preserveAspectRatio="xMidYMid meet" version="1.0"><path fill="#63666a" d="M 783.421875 226.398438 L 783.421875 132.65625 L 795.464844 132.65625 L 828.058594 189.742188 L 828.585938 189.742188 L 861.183594 132.65625 L 873.222656 132.65625 L 873.222656 226.398438 L 861.183594 226.398438 L 861.183594 170.757812 L 861.710938 155.042969 L 861.183594 155.042969 L 831.851562 206.5 L 824.78125 206.5 L 795.453125 155.042969 L 794.925781 155.042969 L 795.453125 170.757812 L 795.453125 226.398438 L 783.414062 226.398438 Z M 783.421875 226.398438 " fill-opacity="1" fill-rule="nonzero"/><path fill="#63666a" d="M 910.289062 228.492188 C 903.476562 228.492188 897.792969 226.527344 893.199219 222.59375 C 888.617188 218.671875 886.328125 213.492188 886.328125 207.019531 C 886.328125 200.019531 889.007812 194.582031 894.445312 190.585938 C 899.882812 186.59375 906.554688 184.632812 914.472656 184.632812 C 921.542969 184.632812 927.367188 185.9375 931.878906 188.554688 L 931.878906 186.722656 C 931.878906 182.011719 930.246094 178.207031 927.039062 175.398438 C 923.832031 172.589844 919.839844 171.148438 915.128906 171.148438 C 911.664062 171.148438 908.457031 171.992188 905.636719 173.636719 C 902.820312 175.28125 900.859375 177.5625 899.8125 180.449219 L 888.816406 175.738281 C 890.320312 171.875 893.199219 168.339844 897.59375 165.074219 C 901.972656 161.796875 907.738281 160.164062 914.871094 160.164062 C 923.058594 160.164062 929.859375 162.582031 935.296875 167.363281 C 940.734375 172.144531 943.414062 178.945312 943.414062 187.660156 L 943.414062 226.410156 L 931.890625 226.410156 L 931.890625 217.507812 L 931.363281 217.507812 C 926.582031 224.835938 919.511719 228.5 910.28125 228.5 Z M 912.25 217.496094 C 917.230469 217.496094 921.742188 215.664062 925.804688 211.929688 C 929.867188 208.195312 931.890625 203.8125 931.890625 198.773438 C 928.484375 195.953125 923.375 194.582031 916.574219 194.582031 C 910.746094 194.582031 906.296875 195.824219 903.347656 198.375 C 900.398438 200.925781 898.894531 203.871094 898.894531 207.277344 C 898.894531 210.425781 900.269531 212.90625 902.960938 214.738281 C 905.636719 216.570312 908.785156 217.484375 912.25 217.484375 Z M 912.25 217.496094 " fill-opacity="1" fill-rule="nonzero"/><path fill="#63666a" d="M 990.347656 228.492188 C 985.4375 228.492188 981.058594 227.445312 977.191406 225.34375 C 973.328125 223.253906 970.382812 220.632812 968.488281 217.484375 L 967.960938 217.484375 L 968.488281 226.390625 L 968.488281 254.671875 L 956.449219 254.671875 L 956.449219 162.246094 L 967.972656 162.246094 L 967.972656 171.148438 L 968.5 171.148438 C 970.402344 168 973.339844 165.390625 977.203125 163.289062 C 981.066406 161.199219 985.449219 160.144531 990.359375 160.144531 C 998.675781 160.144531 1005.804688 163.417969 1011.832031 169.960938 C 1017.855469 176.503906 1020.863281 184.621094 1020.863281 194.3125 C 1020.863281 204.003906 1017.855469 212.117188 1011.832031 218.660156 C 1005.804688 225.203125 998.675781 228.480469 990.359375 228.480469 Z M 988.386719 217.496094 C 993.953125 217.496094 998.792969 215.40625 1002.789062 211.140625 C 1006.78125 206.890625 1008.8125 201.324219 1008.8125 194.320312 C 1008.8125 187.320312 1006.78125 181.753906 1002.789062 177.5 C 998.792969 173.25 993.953125 171.148438 988.386719 171.148438 C 982.820312 171.148438 977.910156 173.238281 973.917969 177.429688 C 969.921875 181.625 967.960938 187.25 967.960938 194.320312 C 967.960938 201.394531 969.921875 207.019531 973.917969 211.210938 C 977.910156 215.40625 982.75 217.496094 988.386719 217.496094 Z M 988.386719 217.496094 " fill-opacity="1" fill-rule="nonzero"/><path fill="#63666a" d="M 1055.75 228.492188 C 1048.617188 228.492188 1042.652344 226.726562 1038.011719 223.253906 C 1033.363281 219.785156 1029.894531 215.394531 1027.734375 210.15625 L 1038.46875 205.703125 C 1041.875 213.761719 1047.703125 217.746094 1055.878906 217.746094 C 1059.613281 217.746094 1062.691406 216.898438 1065.109375 215.253906 C 1067.53125 213.621094 1068.714844 211.390625 1068.714844 208.710938 C 1068.714844 204.519531 1065.769531 201.710938 1059.941406 200.199219 L 1046.976562 197.050781 C 1042.851562 196.003906 1038.988281 194.042969 1035.324219 191.09375 C 1031.660156 188.148438 1029.824219 184.222656 1029.824219 179.246094 C 1029.824219 173.546875 1032.316406 168.964844 1037.355469 165.429688 C 1042.394531 161.894531 1048.347656 160.132812 1055.230469 160.132812 C 1060.925781 160.132812 1065.96875 161.4375 1070.417969 163.996094 C 1074.871094 166.546875 1078.078125 170.28125 1079.980469 175.0625 L 1069.503906 179.382812 C 1067.140625 173.6875 1062.230469 170.867188 1054.84375 170.867188 C 1051.238281 170.867188 1048.230469 171.585938 1045.808594 173.089844 C 1043.390625 174.59375 1042.144531 176.554688 1042.144531 179.113281 C 1042.144531 182.78125 1044.964844 185.269531 1050.660156 186.574219 L 1063.359375 189.582031 C 1069.382812 190.957031 1073.835938 193.375 1076.710938 196.78125 C 1079.589844 200.1875 1081.035156 204.050781 1081.035156 208.304688 C 1081.035156 214.058594 1078.675781 218.839844 1073.964844 222.703125 C 1069.253906 226.5 1063.160156 228.460938 1055.769531 228.460938 Z M 1055.75 228.492188 " fill-opacity="1" fill-rule="nonzero"/><path fill="#34a853" d="M 170.910156 217.328125 C 176.269531 224.007812 181.695312 232.394531 184.546875 237.464844 C 188.019531 244.054688 189.445312 248.507812 192.042969 256.457031 C 193.566406 260.828125 194.992188 262.160156 198.019531 262.160156 C 201.324219 262.160156 202.828125 259.929688 203.996094 256.457031 C 206.394531 248.957031 208.277344 243.269531 211.203125 237.820312 C 216.992188 227.394531 224.3125 218.113281 231.441406 209.210938 C 233.394531 206.710938 245.882812 192 251.5 180.339844 C 251.5 180.339844 258.359375 167.582031 258.359375 149.753906 C 258.359375 133.09375 251.578125 121.503906 251.578125 121.503906 L 231.96875 126.761719 L 220.019531 158.132812 L 217.070312 162.414062 L 216.453125 163.21875 L 215.648438 164.195312 L 214.3125 165.789062 L 212.359375 167.742188 L 201.742188 176.386719 L 175.273438 191.710938 L 170.910156 217.316406 Z M 170.910156 217.328125 " fill-opacity="1" fill-rule="nonzero"/><path fill="#fbbc04" d="M 143.535156 178.1875 C 150.039062 192.988281 162.4375 205.914062 170.902344 217.316406 L 215.746094 164.195312 C 215.746094 164.195312 209.414062 172.480469 198.007812 172.480469 C 185.253906 172.480469 174.925781 162.324219 174.925781 149.488281 C 174.925781 140.664062 180.183594 134.609375 180.183594 134.609375 L 149.769531 142.726562 L 143.535156 178.199219 Z M 143.535156 178.1875 " fill-opacity="1" fill-rule="nonzero"/><path fill="#4285f4" d="M 216.273438 91.816406 C 231.152344 96.625 243.910156 106.695312 251.566406 121.59375 L 215.726562 164.296875 C 215.726562 164.296875 220.984375 158.152344 220.984375 149.417969 C 220.984375 136.3125 209.941406 126.421875 197.988281 126.421875 C 186.667969 126.421875 180.164062 134.628906 180.164062 134.628906 L 180.164062 107.6875 L 216.265625 91.816406 Z M 216.273438 91.816406 " fill-opacity="1" fill-rule="nonzero"/><path fill="#1a73e8" d="M 151.730469 110.617188 C 160.632812 100 176.25 89.046875 197.808594 89.046875 C 208.238281 89.046875 216.164062 91.804688 216.164062 91.804688 L 180.171875 134.597656 L 154.679688 134.597656 L 151.730469 110.605469 Z M 151.730469 110.617188 " fill-opacity="1" fill-rule="nonzero"/><path fill="#ea4335" d="M 143.535156 178.1875 C 143.535156 178.1875 137.660156 166.507812 137.660156 149.667969 C 137.660156 133.710938 143.894531 119.800781 151.820312 110.707031 L 180.261719 134.679688 Z M 143.535156 178.1875 " fill-opacity="1" fill-rule="nonzero"/><path fill="#4486f4" d="M 381.671875 168.808594 C 389.699219 168.808594 397.734375 168.808594 405.761719 168.808594 C 406.121094 168.808594 406.480469 168.828125 406.847656 168.808594 C 407.5625 168.757812 407.863281 169.125 407.933594 169.8125 C 408.082031 171.207031 408.332031 172.601562 408.429688 173.996094 C 409.046875 183 408.003906 191.761719 404.796875 200.226562 C 401.949219 207.757812 397.265625 213.929688 391.242188 219.128906 C 383.753906 225.59375 375.117188 229.425781 365.398438 230.832031 C 354.523438 232.40625 343.878906 231.628906 333.757812 227.175781 C 313.882812 218.433594 301.671875 203.265625 298.515625 181.433594 C 296.113281 164.875 300.824219 150.035156 311.472656 137.238281 C 319.65625 127.398438 330.023438 121.042969 342.363281 117.996094 C 348.667969 116.441406 355.0625 116.195312 361.503906 116.8125 C 371.375 117.746094 380.277344 121.222656 388.285156 127.109375 C 390.117188 128.453125 391.859375 129.917969 393.523438 131.480469 C 394.082031 132.007812 394.199219 132.40625 393.601562 133.023438 C 390.425781 136.300781 387.289062 139.609375 384.121094 142.882812 C 383.464844 143.5625 383.425781 143.523438 382.507812 142.683594 C 378.585938 139.148438 374.171875 136.410156 369.210938 134.628906 C 364.203125 132.824219 359.023438 132.128906 353.726562 132.386719 C 342.601562 132.933594 333.210938 137.347656 325.664062 145.632812 C 320.363281 151.4375 316.96875 158.289062 315.632812 166.078125 C 313.472656 178.707031 316.050781 190.25 323.929688 200.367188 C 329.953125 208.105469 337.863281 212.914062 347.414062 214.835938 C 355.839844 216.53125 364.125 215.953125 372.082031 212.585938 C 379.113281 209.609375 384.816406 204.949219 388.542969 198.097656 C 390.652344 194.210938 391.78125 189.988281 392.417969 185.628906 C 392.554688 184.683594 392.488281 184.621094 391.402344 184.613281 C 388.3125 184.582031 385.226562 184.570312 382.140625 184.570312 C 374.003906 184.570312 365.875 184.570312 357.738281 184.570312 C 357.332031 184.570312 356.914062 184.550781 356.503906 184.570312 C 355.796875 184.601562 355.488281 184.324219 355.488281 183.566406 C 355.507812 178.976562 355.507812 174.394531 355.488281 169.804688 C 355.488281 169.054688 355.777344 168.789062 356.496094 168.808594 C 357.78125 168.835938 359.066406 168.808594 360.359375 168.808594 C 367.460938 168.808594 374.570312 168.808594 381.671875 168.808594 Z M 381.671875 168.808594 " fill-opacity="1" fill-rule="nonzero"/><path fill="#4486f4" d="M 627.578125 165.601562 C 628.035156 165.191406 627.863281 164.695312 627.875 164.246094 C 627.894531 163.101562 627.90625 161.957031 627.875 160.808594 C 627.855469 160.132812 628.023438 159.746094 628.8125 159.746094 C 633.292969 159.765625 637.765625 159.765625 642.246094 159.746094 C 642.894531 159.746094 643.210938 159.992188 643.191406 160.660156 C 643.191406 161.027344 643.191406 161.386719 643.191406 161.757812 C 643.191406 182.757812 643.203125 203.773438 643.191406 224.777344 C 643.191406 230.570312 642.761719 236.339844 640.980469 241.90625 C 636.917969 254.574219 628.3125 261.921875 615.417969 264.152344 C 609.71875 265.140625 604.042969 264.96875 598.445312 263.335938 C 590.957031 261.144531 584.980469 256.765625 580.3125 250.5 C 578.789062 248.457031 577.492188 246.265625 576.449219 243.925781 C 575.960938 242.839844 575.960938 242.8125 577.074219 242.34375 C 581.007812 240.671875 584.953125 239.007812 588.90625 237.363281 C 589.960938 236.925781 589.992188 236.945312 590.507812 238.011719 C 592.292969 241.695312 594.75 244.773438 598.167969 247.023438 C 601.832031 249.445312 605.867188 250.351562 610.21875 250.011719 C 613.34375 249.761719 616.324219 249.074219 619.03125 247.453125 C 623.375 244.851562 625.785156 240.851562 627 236.019531 C 627.996094 232.085938 627.914062 228.0625 627.875 224.050781 C 627.875 223.800781 627.914062 223.472656 627.644531 223.351562 C 627.117188 223.132812 626.9375 223.652344 626.679688 223.917969 C 622.625 228.210938 617.578125 230.492188 611.851562 231.257812 C 605.277344 232.136719 598.996094 230.929688 593.160156 227.8125 C 581.925781 221.808594 575.210938 212.367188 573.429688 199.628906 C 571.917969 188.804688 574.785156 179.054688 581.625 170.589844 C 586.566406 164.484375 592.808594 160.300781 600.417969 158.441406 C 608.296875 156.519531 615.84375 157.253906 622.824219 161.757812 C 624.128906 162.59375 625.335938 163.570312 626.421875 164.695312 C 626.757812 165.050781 627.039062 165.53125 627.578125 165.621094 Z M 628.941406 193.964844 C 628.992188 191.34375 628.472656 188.226562 627.316406 185.230469 C 625.117188 179.574219 621.453125 175.332031 615.726562 173.1875 C 607.789062 170.230469 598.664062 173.269531 593.566406 180.46875 C 590.210938 185.199219 588.90625 190.507812 589.265625 196.265625 C 589.703125 203.195312 592.441406 208.972656 598.046875 213.09375 C 606.421875 219.269531 617.996094 217.925781 624.429688 209.210938 C 627.636719 204.867188 628.980469 199.929688 628.949219 193.964844 Z M 628.941406 193.964844 " fill-opacity="1" fill-rule="nonzero"/><path fill="#ea4537" d="M 450.996094 157.394531 C 464.132812 157.933594 475.054688 163.609375 482.167969 175.859375 C 486.171875 182.757812 487.496094 190.339844 486.738281 198.296875 C 486 206.113281 483.183594 213.066406 478.042969 218.941406 C 470.761719 227.246094 461.511719 231.4375 450.605469 231.449219 C 436.792969 231.449219 425.910156 225.621094 418.628906 213.601562 C 410.75 200.585938 411.347656 180.597656 424.425781 167.800781 C 430.121094 162.234375 436.953125 158.976562 444.789062 157.832031 C 446.632812 157.5625 448.484375 157.535156 450.996094 157.394531 Z M 470.824219 193.65625 C 470.863281 191.035156 470.195312 187.6875 468.8125 184.492188 C 462.777344 170.578125 444.660156 167.742188 434.972656 179.195312 C 428.519531 186.8125 427.820312 198.992188 433.347656 207.507812 C 441.015625 219.320312 457.300781 220.105469 466.011719 209.050781 C 469.359375 204.820312 470.8125 199.910156 470.824219 193.65625 Z M 470.824219 193.65625 " fill-opacity="1" fill-rule="nonzero"/><path fill="#fbbd07" d="M 529.949219 231.46875 C 514.753906 230.871094 503.148438 224.296875 496.539062 210.097656 C 489.945312 195.957031 493.191406 178.527344 504.164062 167.769531 C 509.933594 162.113281 516.882812 158.828125 524.851562 157.8125 C 534.191406 156.617188 542.925781 158.398438 550.753906 163.769531 C 560.203125 170.242188 565.324219 179.394531 566.449219 190.867188 C 567.136719 197.9375 566.082031 204.75 562.902344 211.0625 C 556.777344 223.210938 546.808594 229.804688 533.496094 231.339844 C 532.878906 231.410156 532.261719 231.4375 531.640625 231.46875 C 531.074219 231.488281 530.507812 231.46875 529.949219 231.46875 Z M 550.515625 194.441406 C 550.515625 189.671875 549.398438 185.566406 547.097656 181.804688 C 539.628906 169.59375 522.570312 168.726562 513.957031 180.121094 C 507.949219 188.058594 507.769531 199.976562 513.535156 208.222656 C 520.875 218.730469 535.714844 219.867188 544.46875 210.523438 C 548.683594 206.035156 550.535156 200.574219 550.523438 194.429688 Z M 550.515625 194.441406 " fill-opacity="1" fill-rule="nonzero"/><path fill="#ea4537" d="M 710.832031 231.488281 C 701.890625 231.320312 692.65625 227.425781 685.546875 218.949219 C 680.1875 212.566406 677.511719 205.058594 677.082031 196.742188 C 676.664062 188.476562 678.1875 180.609375 682.570312 173.527344 C 688.683594 163.660156 697.558594 158.261719 709.058594 157.554688 C 720.941406 156.828125 730.191406 161.796875 737.214844 171.355469 C 740.101562 175.289062 741.972656 179.742188 743.695312 184.285156 C 744.054688 185.21875 744.015625 185.25 742.78125 185.765625 C 734.695312 189.164062 726.617188 192.550781 718.53125 195.933594 C 711.25 198.984375 703.980469 202.03125 696.699219 205.078125 C 696.511719 205.15625 696.324219 205.257812 696.132812 205.316406 C 695.40625 205.554688 695.328125 205.972656 695.683594 206.621094 C 698.425781 211.601562 702.316406 215.144531 707.933594 216.320312 C 716.640625 218.132812 724.644531 215.472656 730.113281 207.597656 C 730.800781 206.609375 730.808594 206.601562 731.796875 207.257812 C 735.363281 209.636719 738.917969 212.039062 742.472656 214.429688 C 743.429688 215.074219 743.4375 215.105469 742.8125 215.960938 C 735.351562 226.03125 724.972656 231.539062 710.84375 231.476562 Z M 692.546875 193.246094 C 693.117188 193.046875 693.453125 192.957031 693.78125 192.816406 C 703.5625 188.703125 713.332031 184.59375 723.113281 180.46875 C 725.371094 179.511719 725.421875 179.375 723.917969 177.382812 C 721.390625 174.035156 717.894531 172.453125 713.871094 171.933594 C 705.863281 170.898438 698.226562 175.96875 694.898438 182.480469 C 693.207031 185.789062 692.457031 189.292969 692.546875 193.238281 Z M 692.546875 193.246094 " fill-opacity="1" fill-rule="nonzero"/><path fill="#36a954" d="M 653.828125 174.792969 C 653.828125 157.273438 653.828125 139.757812 653.828125 122.238281 C 653.828125 120.21875 653.640625 120.347656 655.621094 120.347656 C 659.941406 120.347656 664.265625 120.355469 668.585938 120.378906 C 669.871094 120.378906 669.871094 120.40625 669.902344 121.652344 C 669.902344 121.910156 669.902344 122.167969 669.902344 122.4375 C 669.902344 157.363281 669.902344 192.300781 669.902344 227.226562 C 669.902344 229.417969 670.242188 229.238281 667.941406 229.238281 C 663.875 229.238281 659.804688 229.238281 655.738281 229.238281 C 655.382812 229.238281 655.023438 229.21875 654.65625 229.238281 C 654.097656 229.257812 653.777344 229.046875 653.816406 228.429688 C 653.839844 228.011719 653.816406 227.59375 653.816406 227.175781 C 653.816406 209.707031 653.816406 192.25 653.816406 174.78125 Z M 653.828125 174.792969 " fill-opacity="1" fill-rule="nonzero"/></svg>